<svg id="Capa_1" enable-background="new 0 0 511.983 511.983" height="512" viewBox="0 0 511.983 511.983" width="512" xmlns="http://www.w3.org/2000/svg"><g><g><g><path d="m447.088 300.885h-51.121c1.257-4.762 1.768-9.73 1.478-14.721-1.362-23.4-20.016-42.261-43.392-43.87-26.661-1.832-50.051 19.862-50.051 46.648 0 4.083.519 8.087 1.531 11.942l-240.639.001c-5.522 0-10 4.478-10 10v163.936c0 20.49 16.67 37.161 37.16 37.161l213.724-.002c5.522 0 10-4.478 10-10s-4.478-10-10-10h-39.786v-61.097c0-8.512-10.425-13.112-16.716-7.414-4.893 4.433-11.351 6.924-17.955 6.924-14.744 0-27.103-12.708-26.75-27.426.35-14.468 12.936-26.427 27.394-26.082 6.862.159 12.547 3.076 17.784 7.273 6.421 5.153 16.244.448 16.244-7.778v-55.496h55.275c8.053 0 12.843-9.499 8.019-15.975-3.457-4.641-5.284-10.162-5.284-15.968 0-15.351 13.385-27.759 28.678-26.695 13.358.92 24.02 11.701 24.798 25.079.373 6.403-1.438 12.484-5.238 17.584-4.82 6.473-.038 15.975 8.02 15.975h56.829v153.936c0 9.462-7.698 17.16-17.16 17.16h-25.789c-5.522 0-10 4.478-10 10s4.478 10 10 10h25.789c20.49 0 37.16-16.67 37.16-37.16v-163.935c-.002-5.522-4.479-10-10.002-10zm-201.098 191.098h-153.935c-9.462 0-17.16-7.698-17.16-17.161v-153.936h171.095v38.326c-5.396-1.78-11.156-2.548-16.829-2.291-25.126 1.119-45.231 22.818-44.582 47.899.605 25.744 22.824 46.494 48.524 45.539 4.371-.169 8.732-.934 12.887-2.305z"/><path d="m149.865 176.998c-4.406 2.219-8.469 5.143-12.027 8.7-18.238 18.239-18.205 47.949.074 66.229 18.279 18.279 47.99 18.312 66.23.074 3.557-3.558 6.481-7.62 8.7-12.026l36.076 36.076c3.851 3.849 10.291 3.849 14.143 0l46.156-46.156c5.706-5.708 2.346-15.802-5.627-16.967-5.726-.835-10.923-3.447-15.03-7.555-10.866-10.865-10.151-29.105 1.416-39.165 10.1-8.788 25.262-8.691 35.263.222 4.786 4.266 7.805 9.844 8.729 16.132 1.169 7.963 11.257 11.326 16.965 5.618l47.254-47.253c3.847-3.847 3.846-10.294 0-14.143l-115.919-115.917s0 0-.001 0c-14.488-14.488-38.064-14.489-52.553 0l-115.919 115.919c-3.905 3.905-3.905 10.237 0 14.143zm93.992-151.989c6.689-6.691 17.579-6.691 24.269 0l108.848 108.848-29.081 29.08c-2.475-4.248-5.621-8.118-9.346-11.438-17.496-15.591-44.019-15.755-61.696-.38-20.165 17.543-21.385 49.443-2.431 68.397 2.888 2.888 6.086 5.354 9.529 7.363l-27.958 27.959-41.137-41.137c-6.02-6.017-16.641-1.886-17.06 6.58-.326 6.636-3.095 12.878-7.794 17.577-10.441 10.44-27.465 10.408-37.945-.074-10.482-10.481-10.516-27.504-.074-37.944 4.7-4.7 10.942-7.466 17.578-7.788 8.477-.411 12.605-11.041 6.587-17.06l-41.137-41.137z"/><path d="m359.641 498.153c-3.441-8.266-15.638-7.967-18.646.461-3.056 8.559 6.453 16.513 14.341 12.06 4.352-2.458 6.196-7.91 4.305-12.521z"/></g></g></g></svg>